<svg width="400" height="300" viewBox="0 0 400 300" fill="none" xmlns="http://www.w3.org/2000/svg">
  <defs>
    <linearGradient id="bgGrad" x1="0%" y1="0%" x2="100%" y2="100%">
      <stop offset="0%" style="stop-color:#1e3a8a;stop-opacity:1" />
      <stop offset="100%" style="stop-color:#7c3aed;stop-opacity:1" />
    </linearGradient>
  </defs>
  <rect width="400" height="300" fill="url(#bgGrad)"/>
  
  <!-- Circuit patterns -->
  <g stroke="#60a5fa" stroke-width="2" fill="none" opacity="0.6">
    <path d="M50 50 L150 50 L150 100 L250 100"/>
    <path d="M100 150 L200 150 L200 200 L350 200"/>
    <path d="M50 250 L100 250 L100 180 L200 180"/>
  </g>
  
  <!-- AI nodes -->
  <circle cx="150" cy="100" r="8" fill="#60a5fa"/>
  <circle cx="200" cy="150" r="8" fill="#60a5fa"/>
  <circle cx="100" cy="180" r="8" fill="#60a5fa"/>
  
  <!-- Central robot icon -->
  <g transform="translate(180, 120)">
    <rect x="0" y="10" width="40" height="50" rx="5" fill="#e5e7eb"/>
    <rect x="5" y="20" width="30" height="20" fill="#1f2937"/>
    <circle cx="15" cy="30" r="3" fill="#60a5fa"/>
    <circle cx="25" cy="30" r="3" fill="#60a5fa"/>
    <rect x="15" y="40" width="10" height="5" fill="#374151"/>
  </g>
</svg>