<svg width="400" height="300" viewBox="0 0 400 300" fill="none" xmlns="http://www.w3.org/2000/svg">
  <defs>
    <linearGradient id="brandGrad" x1="0%" y1="0%" x2="100%" y2="100%">
      <stop offset="0%" style="stop-color:#f59e0b;stop-opacity:1" />
      <stop offset="100%" style="stop-color:#d97706;stop-opacity:1" />
    </linearGradient>
  </defs>
  <rect width="400" height="300" fill="url(#brandGrad)"/>
  
  <!-- Brand elements -->
  <g transform="translate(120, 80)">
    <!-- Business card -->
    <rect x="0" y="0" width="80" height="50" rx="4" fill="#fef3c7"/>
    <rect x="10" y="10" width="60" height="4" fill="#92400e"/>
    <rect x="10" y="20" width="40" height="2" fill="#92400e"/>
    <rect x="10" y="25" width="30" height="2" fill="#92400e"/>
    
    <!-- T-shirt -->
    <g transform="translate(100, 20)">
      <path d="M20 0 L40 0 L50 10 L50 80 L10 80 L10 10 Z" fill="#fef3c7"/>
      <path d="M15 10 L45 10 L45 20 L15 20 Z" fill="#92400e"/>
      <circle cx="30" cy="35" r="8" fill="#92400e"/>
    </g>
  </g>
  
  <!-- Design swatches -->
  <g transform="translate(50, 200)">
    <circle cx="0" cy="0" r="15" fill="#ef4444"/>
    <circle cx="40" cy="0" r="15" fill="#3b82f6"/>
    <circle cx="80" cy="0" r="15" fill="#10b981"/>
    <circle cx="120" cy="0" r="15" fill="#8b5cf6"/>
  </g>
</svg>