<svg width="400" height="300" viewBox="0 0 400 300" fill="none" xmlns="http://www.w3.org/2000/svg">
  <defs>
    <linearGradient id="secGrad" x1="0%" y1="0%" x2="100%" y2="100%">
      <stop offset="0%" style="stop-color:#dc2626;stop-opacity:1" />
      <stop offset="100%" style="stop-color:#ea580c;stop-opacity:1" />
    </linearGradient>
  </defs>
  <rect width="400" height="300" fill="url(#secGrad)"/>
  
  <!-- Shield shape -->
  <g transform="translate(150, 80)">
    <path d="M50 0 L100 20 L100 100 C100 120 80 140 50 140 C20 140 0 120 0 100 L0 20 Z" fill="#fef3c7" opacity="0.9"/>
    <path d="M50 20 L80 30 L80 90 C80 105 70 115 50 115 C30 115 20 105 20 90 L20 30 Z" fill="#d97706"/>
    
    <!-- Lock icon -->
    <rect x="40" y="60" width="20" height="25" rx="3" fill="#451a03"/>
    <path d="M35 60 C35 50 42 45 50 45 C58 45 65 50 65 60" stroke="#451a03" stroke-width="3" fill="none"/>
  </g>
  
  <!-- Security particles -->
  <g fill="#fbbf24" opacity="0.7">
    <circle cx="80" cy="100" r="3"/>
    <circle cx="320" cy="150" r="3"/>
    <circle cx="100" cy="220" r="3"/>
    <circle cx="300" cy="80" r="3"/>
  </g>
</svg>