<svg width="400" height="300" viewBox="0 0 400 300" fill="none" xmlns="http://www.w3.org/2000/svg">
  <defs>
    <linearGradient id="dataGrad" x1="0%" y1="0%" x2="100%" y2="100%">
      <stop offset="0%" style="stop-color:#059669;stop-opacity:1" />
      <stop offset="100%" style="stop-color:#0d9488;stop-opacity:1" />
    </linearGradient>
  </defs>
  <rect width="400" height="300" fill="url(#dataGrad)"/>
  
  <!-- Chart background -->
  <rect x="80" y="80" width="240" height="140" fill="#f0fdf4" rx="8" opacity="0.9"/>
  
  <!-- Bar chart -->
  <g fill="#10b981">
    <rect x="100" y="160" width="20" height="40"/>
    <rect x="130" y="140" width="20" height="60"/>
    <rect x="160" y="120" width="20" height="80"/>
    <rect x="190" y="100" width="20" height="100"/>
    <rect x="220" y="130" width="20" height="70"/>
    <rect x="250" y="110" width="20" height="90"/>
    <rect x="280" y="150" width="20" height="50"/>
  </g>
  
  <!-- Line chart -->
  <polyline points="110,180 140,160 170,140 200,120 230,150 260,130 290,170" 
           stroke="#065f46" stroke-width="3" fill="none"/>
  
  <!-- Data points -->
  <g fill="#065f46">
    <circle cx="110" cy="180" r="4"/>
    <circle cx="140" cy="160" r="4"/>
    <circle cx="170" cy="140" r="4"/>
    <circle cx="200" cy="120" r="4"/>
    <circle cx="230" cy="150" r="4"/>
    <circle cx="260" cy="130" r="4"/>
    <circle cx="290" cy="170" r="4"/>
  </g>
</svg>