<svg width="400" height="300" viewBox="0 0 400 300" fill="none" xmlns="http://www.w3.org/2000/svg">
  <defs>
    <linearGradient id="socialGrad" x1="0%" y1="0%" x2="100%" y2="100%">
      <stop offset="0%" style="stop-color:#ec4899;stop-opacity:1" />
      <stop offset="100%" style="stop-color:#be185d;stop-opacity:1" />
    </linearGradient>
  </defs>
  <rect width="400" height="300" fill="url(#socialGrad)"/>
  
  <!-- Social media posts -->
  <g transform="translate(80, 60)">
    <!-- Post 1 -->
    <rect x="0" y="0" width="100" height="80" rx="8" fill="#fdf2f8"/>
    <rect x="10" y="10" width="80" height="40" fill="#ec4899" opacity="0.3"/>
    <rect x="10" y="55" width="60" height="4" fill="#be185d"/>
    <rect x="10" y="65" width="40" height="4" fill="#be185d"/>
    
    <!-- Post 2 -->
    <rect x="120" y="20" width="100" height="80" rx="8" fill="#fdf2f8"/>
    <circle cx="170" cy="40" r="15" fill="#ec4899" opacity="0.3"/>
    <rect x="130" y="75" width="80" height="4" fill="#be185d"/>
    <rect x="130" y="85" width="50" height="4" fill="#be185d"/>
  </g>
  
  <!-- Engagement icons -->
  <g fill="#fdf2f8" opacity="0.8">
    <circle cx="120" cy="200" r="8"/>
    <path d="M120 195 L125 205 L135 195" stroke="#fdf2f8" stroke-width="2" fill="none"/>
    
    <circle cx="160" cy="200" r="8"/>
    <path d="M160 195 L160 205 M155 200 L165 200" stroke="#fdf2f8" stroke-width="2"/>
    
    <circle cx="200" cy="200" r="8"/>
    <path d="M195 200 L205 195 L205 205 Z" fill="#fdf2f8"/>
  </g>
</svg>